{"title":"Teen Patti (2010) Repack DVD Rip X264 AC3 E-Sub [Dare DEvils]","uid":5532094,"size":937948476,"categoryP":"video","categoryS":"movies","magnet":"?xt=urn:btih:71cb7bea5e722786f89ac48a64dfc888243dbaad&amp;dn=Teen+Patti+%282010%29+Repack+DVD+Rip+X264+AC3+E-Sub+%5BDare+DEvils%5D&amp;tr=udp%3A%2F%2Ftracker.openbittorrent.com%3A80&amp;tr=udp%3A%2F%2Fopen.demonii.com%3A1337&amp;tr=udp%3A%2F%2Ftracker.coppersurfer.tk%3A6969&amp;tr=udp%3A%2F%2Fexodus.desync.com%3A6969","seeders":1,"leechers":0,"uploader":"luvwithromio","files":-1,"time":1272961103,"description":"Format                           : AVI\nFormat/Info                      : Audio Video Interleave\nFile size                        : 891 MiB\nDuration                         : 2h 23mn\nOverall bit rate                 : 871 Kbps\n\nVideo\nID                               : 0\nFormat                           : AVC\nFormat/Info                      : Advanced Video Codec\nFormat profile                   : &lt;a class=&quot;__cf_email__&quot; href=&quot;/cdn-cgi/l/email-protection&quot; data-cfemail=&quot;b0f8d9d7d8f0fc829e81&quot;&gt;[email&amp;#160;protected]&lt;/a&gt;&lt;script cf-hash='f9e31' type=&quot;text/javascript&quot;&gt;\n/* &lt;![CDATA[ */!function(){try{var t=&quot;currentScript&quot;in document?document.currentScript:function(){for(var t=document.getElementsByTagName(&quot;script&quot;),e=t.length;e--;)if(t[e].getAttribute(&quot;cf-hash&quot;))return t[e]}();if(t&amp;&amp;t.previousSibling){var e,r,n,i,c=t.previousSibling,a=c.getAttribute(&quot;data-cfemail&quot;);if(a){for(e=&quot;&quot;,r=parseInt(a.substr(0,2),16),n=2;a.length-n;n+=2)i=parseInt(a.substr(n,2),16)^r,e+=String.fromCharCode(i);e=document.createTextNode(e),c.parentNode.replaceChild(e,c)}}}catch(u){}}();/* ]]&gt; */&lt;/script&gt;\nFormat settings, CABAC           : Yes\nFormat settings, ReFrames        : 3 frames\nCodec ID                         : H264\nDuration                         : 2h 23mn\nBit rate                         : 668 Kbps\nWidth                            : 640 pixels\nHeight                           : 272 pixels\nDisplay aspect ratio             : 2.35:1\nFrame rate                       : 23.976 fps\nResolution                       : 8 bits\nColorimetry                      : 4:2:0\nScan type                        : Progressive\nBits/(Pixel*Frame)               : 0.160\nStream size                      : 684 MiB (77%)\nWriting library                  : x264 core 68\n\nAudio\nID                               : 1\nFormat                           : AC-3\nFormat/Info                      : Audio Coding 3\nFormat_Settings_ModeExtension    : CM (complete main)\nCodec ID                         : 2000\nDuration                         : 2h 23mn\nBit rate mode                    : Constant\nBit rate                         : 192 Kbps\nChannel(s)                       : 6 channels\nChannel positions                : Front: L C R, Side: L R, LFE\nSampling rate                    : 48.0 KHz\nResolution                       : 16 bits\nStream size                      : 196 MiB (22%)\nAlignment                        : Aligned on interleaves\nInterleave, duration             : 32 ms (0.77 video frame)","torrent":{"xt":"urn:btih:71cb7bea5e722786f89ac48a64dfc888243dbaad","amp;dn":"Teen+Patti+%282010%29+Repack+DVD+Rip+X264+AC3+E-Sub+%5BDare+DEvils%5D","amp;tr":["udp%3A%2F%2Ftracker.openbittorrent.com%3A80","udp%3A%2F%2Fopen.demonii.com%3A1337","udp%3A%2F%2Ftracker.coppersurfer.tk%3A6969","udp%3A%2F%2Fexodus.desync.com%3A6969"],"infoHash":"71cb7bea5e722786f89ac48a64dfc888243dbaad","infoHashBuffer":{"type":"Buffer","data":[113,203,123,234,94,114,39,134,248,154,196,138,100,223,200,136,36,61,186,173]},"announce":[],"urlList":[]}}